<?xml version="1.0" standalone="no"?>
<!DOCTYPE svg PUBLIC "-//W3C//DTD SVG 20010904//EN"
 "http://www.w3.org/TR/2001/REC-SVG-20010904/DTD/svg10.dtd">
<svg version="1.0" xmlns="http://www.w3.org/2000/svg"
 width="700.000000pt" height="700.000000pt" viewBox="0 0 700.000000 700.000000"
 preserveAspectRatio="xMidYMid meet">
<metadata>
Created by potrace 1.14, written by Peter Selinger 2001-2017
</metadata>
<g transform="translate(0.000000,700.000000) scale(0.100000,-0.100000)"
fill="#000000" stroke="none">
<path d="M3368 6995 c-1 -1 -23 -5 -48 -9 -129 -17 -252 -49 -345 -91 -16 -7
-48 -21 -70 -31 -262 -112 -548 -386 -703 -674 -79 -146 -145 -334 -171 -485
-6 -33 -13 -73 -16 -90 -4 -16 -8 -104 -10 -195 l-4 -165 -303 -6 c-338 -6
-360 -10 -464 -77 -100 -65 -192 -188 -221 -297 -4 -16 -9 -1022 -10 -2235 -2
-2402 -5 -2247 54 -2369 35 -72 143 -180 214 -215 121 -58 -4 -55 2230 -56
2247 0 2103 -4 2229 57 71 34 179 142 213 213 59 123 56 -29 56 2350 1 1793
-2 2195 -13 2242 -45 193 -211 349 -406 382 -14 3 -147 5 -296 5 l-272 1 2
107 c4 275 -50 520 -171 773 -179 373 -490 656 -866 789 -48 17 -98 33 -110
35 -12 3 -58 12 -102 22 -68 14 -385 30 -397 19z m375 -529 c438 -130 744
-572 783 -1128 l6 -88 -1017 0 -1017 0 7 98 c39 556 375 1020 817 1128 130 31
296 27 421 -10z m942 -2982 c73 -15 141 -69 167 -134 18 -44 15 -144 -6 -207
-15 -44 -90 -123 -789 -819 -854 -854 -829 -831 -942 -822 -39 3 -70 14 -111
40 -35 22 -198 176 -443 422 -368 367 -388 389 -405 442 -38 120 -24 194 50
268 63 63 139 83 227 60 60 -16 81 -29 154 -100 138 -133 420 -404 481 -462
l66 -63 305 305 c747 745 1045 1038 1074 1053 63 32 85 34 172 17z"/>
</g>
</svg>
